<?xml version="1.0" standalone="no"?>
<!DOCTYPE svg PUBLIC "-//W3C//DTD SVG 20010904//EN"
 "http://www.w3.org/TR/2001/REC-SVG-20010904/DTD/svg10.dtd">
<svg version="1.0" xmlns="http://www.w3.org/2000/svg"
 width="300.000000pt" height="300.000000pt" viewBox="0 0 300.000000 300.000000"
 preserveAspectRatio="xMidYMid meet">
<metadata>
Created by potrace 1.10, written by Peter Selinger 2001-2011
</metadata>
<g transform="translate(0.000000,300.000000) scale(0.100000,-0.100000)"
fill="#000000" stroke="none">
<path d="M1330 2724 c-545 -80 -974 -510 -1051 -1053 -18 -127 -6 -352 25
-472 66 -258 222 -499 424 -659 42 -33 82 -65 88 -70 32 -25 191 -104 263
-130 95 -35 112 -36 134 -12 15 17 17 55 17 340 l0 321 -67 56 c-118 101 -187
205 -212 323 -15 73 -14 216 3 280 64 239 289 413 536 414 357 3 628 -312 567
-657 -27 -150 -84 -239 -249 -387 l-38 -33 -2 -318 c-2 -314 -2 -317 19 -339
22 -21 23 -21 85 -4 94 25 272 117 370 191 195 147 349 361 428 595 12 36 24
76 26 90 3 14 10 41 15 60 6 19 13 106 16 192 4 123 2 178 -12 255 -46 262
-160 480 -350 668 -183 182 -404 298 -649 340 -80 14 -315 19 -386 9z m357
-39 c384 -62 714 -304 886 -650 233 -468 138 -1030 -237 -1392 -135 -132 -274
-217 -455 -281 l-81 -29 0 326 0 326 36 20 c58 31 158 146 198 227 86 174 86
362 0 538 -51 103 -161 213 -264 264 -240 117 -504 74 -691 -113 -187 -187
-230 -452 -113 -689 40 -81 140 -196 198 -227 l36 -20 0 -326 0 -326 -81 29
c-431 152 -732 508 -804 951 -83 512 185 1030 652 1261 223 110 479 150 720
111z"/>
<path d="M1358 1961 c-113 -36 -199 -101 -260 -195 -106 -165 -105 -375 5
-538 38 -57 74 -90 191 -171 l26 -18 0 -371 c-1 -459 -19 -418 180 -418 132 0
137 1 160 25 l23 25 2 367 c1 203 3 371 4 374 0 4 29 25 64 48 68 44 105 81
154 151 52 76 68 140 68 270 -1 107 -3 120 -31 180 -87 185 -250 291 -448 289
-49 0 -103 -7 -138 -18z m305 -41 c69 -26 143 -83 196 -150 102 -129 118 -328
40 -482 -31 -61 -145 -170 -202 -194 l-47 -19 -2 -395 -3 -395 -145 0 -145 0
-3 395 -2 395 -47 19 c-56 24 -171 133 -202 193 -66 131 -66 295 0 426 28 54
132 158 187 186 109 56 261 64 375 21z"/>
</g>
</svg>
